<svg width="1183" height="525" version="1.1" xmlns="http://www.w3.org/2000/svg"><path fill="rgb(32,32,32)" stroke="rgb(32,32,32)" stroke-width="1" opacity="0.9686274509803922" d="M 543.5 202 L 556.5 202 L 565.5 204 Q 579 208.5 587 218.5 L 594 230.5 L 596 238.5 L 596 320.5 L 597 321.5 L 594.5 324 L 564.5 324 L 562 323 L 562 246.5 Q 559.8 239.2 554.5 235 L 547.5 231 Q 542.8 232.2 541.5 230 Q 540 232.5 534.5 231 L 524 237.5 L 520 244.5 L 518 254.5 L 518 325 L 485.5 325 L 485 323.5 L 484 322.5 L 484 248.5 Q 482.6 240.9 477.5 237 Q 471.1 230.4 457.5 231 Q 448.4 232.9 444 239.5 L 440 248.5 L 440 256.5 L 439 257.5 L 439 325 L 406.5 325 L 405 323.5 L 405 206.5 L 406.5 206 L 408.5 206 L 438.5 206 L 440 207.5 L 439 208.5 L 439 216 L 449.5 208 L 458.5 204 L 462.5 203 L 481.5 203 Q 499.8 206.8 509 219.5 L 510.5 222 L 514 221 L 514 219.5 L 523.5 210 L 534.5 204 L 543.5 202 Z "></path><path fill="rgb(32,32,32)" stroke="rgb(32,32,32)" stroke-width="1" opacity="0.9686274509803922" d="M 668.5 202 L 687.5 202 L 705.5 207 Q 719.8 213.8 729 225.5 L 737 239.5 L 740 249.5 L 741 271.5 L 737 288.5 Q 732.2 300.7 723.5 309 L 713.5 317 L 695.5 325 L 684.5 326 L 683.5 327 L 672.5 327 L 661.5 325 L 642.5 317 L 628 303.5 L 620 290.5 L 617 280.5 L 616 275.5 L 616 252.5 Q 620.9 227.9 637.5 215 L 650.5 207 L 668.5 202 Z M 676 232 L 667 234 L 660 238 Q 649 244 647 259 Q 646 276 653 286 L 661 293 L 675 298 Q 690 298 699 291 L 706 281 L 709 270 L 709 257 L 702 243 Q 693 233 676 232 Z "></path><path fill="rgb(32,32,32)" stroke="rgb(32,32,32)" stroke-width="1" opacity="0.9686274509803922" d="M 824.5 202 L 846.5 203 L 856.5 207 L 869 217.5 L 876 230.5 L 878 239.5 L 878 322.5 L 876.5 324 L 845 324 L 845 254.5 L 842 241.5 L 834.5 234 L 827.5 231 L 813.5 231 L 806.5 234 L 801 239.5 L 797 247.5 L 796 255.5 L 796 257.5 L 796 322.5 L 794.5 324 L 792.5 323 L 791.5 324 L 764.5 324 L 762 323 L 762 204.5 L 762.5 204 L 796 204 L 796.5 216 Q 806.4 204.9 824.5 202 Z "></path><path fill="rgb(32,32,32)" stroke="rgb(32,32,32)" stroke-width="1" opacity="0.9686274509803922" d="M 958.5 202 L 978.5 203 L 987.5 206 Q 1004 213 1014 226.5 L 1024 244.5 L 1026 253.5 L 1026 274.5 L 1025 279 L 934.5 279 L 934 280.5 L 942.5 293 Q 952.3 302.7 972.5 302 L 984.5 299 L 1002.5 287 L 1024 303.5 Q 1024.8 305.8 1022.5 305 Q 1004.6 323.6 972.5 328 L 970.5 328 Q 931.3 327.2 914 304.5 L 904 285.5 L 901 268.5 Q 903.2 267.3 902 262.5 L 902 260.5 L 902 252.5 L 906 239.5 Q 911.1 227.1 920.5 219 L 936.5 208 L 947.5 204 L 958.5 202 Z M 962 232 L 953 234 L 944 239 Q 937 243 936 251 L 992 251 L 989 246 Q 984 238 975 234 L 962 232 Z "></path><path fill="rgb(32,32,32)" stroke="rgb(32,32,32)" stroke-width="1" opacity="0.9686274509803922" d="M 1034.5 204 L 1068.5 204 L 1071 206.5 L 1099.5 277 L 1129 204 L 1162.5 204 L 1164 205.5 L 1133 283.5 L 1125 300.5 L 1120 315.5 L 1101 359.5 L 1100 364.5 L 1096.5 370 L 1061.5 370 L 1061 366.5 Q 1072.2 346.2 1080 322.5 L 1033 205.5 L 1034.5 204 Z "></path><path fill="rgb(0,0,0)" stroke="rgb(0,0,0)" stroke-width="1" opacity="0" d="M 0 0 L 1183 0 L 1183 525 L 0 525 L 0 0 Z M 226 134 L 225 135 L 214 136 L 191 145 Q 189 148 188 146 L 187 148 L 176 154 Q 173 153 174 156 L 172 156 L 164 162 L 149 178 L 146 179 L 145 183 L 131 202 L 127 210 L 125 218 L 123 220 L 120 237 L 119 237 L 119 170 L 14 170 L 17 188 L 20 193 L 26 217 L 28 219 L 30 230 L 33 235 L 34 243 L 36 245 L 38 252 L 38 256 L 41 261 L 43 273 L 45 275 L 47 286 L 51 295 L 51 299 L 55 305 L 57 316 L 59 318 L 61 325 L 61 329 L 64 334 L 66 345 L 68 347 L 70 358 L 74 360 L 76 359 L 119 359 L 120 288 L 123 306 L 133 326 Q 132 328 135 327 L 137 333 L 146 345 Q 145 347 148 346 L 149 349 L 172 369 Q 175 368 174 371 L 186 377 Q 188 376 187 379 L 189 378 L 202 385 L 212 387 L 214 389 L 225 390 L 226 391 L 265 391 L 275 389 L 277 389 Q 280 386 287 386 Q 288 382 290 385 L 310 375 L 321 367 Q 323 368 322 365 L 327 363 L 339 352 Q 338 349 341 350 L 348 341 Q 347 338 350 339 L 363 316 L 369 299 Q 368 294 371 295 Q 370 289 373 287 L 374 267 L 375 266 L 374 245 Q 372 243 373 238 L 371 235 Q 373 228 369 229 L 367 221 Q 368 216 365 217 L 363 209 L 355 195 Q 356 192 353 193 L 352 190 L 343 178 Q 329 161 310 150 L 290 140 L 278 137 L 276 137 L 273 135 Q 266 137 265 134 L 226 134 Z M 544 202 L 535 204 L 524 210 L 514 220 L 514 221 L 511 222 L 509 220 Q 500 207 482 203 L 463 203 L 459 204 L 450 208 L 439 216 L 439 209 L 440 208 L 439 206 L 409 206 L 407 206 L 405 207 L 405 324 L 407 325 L 439 325 L 439 258 L 440 257 L 440 249 L 444 240 Q 448 233 458 231 Q 471 230 478 237 Q 483 241 484 249 L 484 323 L 485 324 L 486 325 L 518 325 L 518 255 L 520 245 L 524 238 L 535 231 Q 540 233 542 230 Q 543 232 548 231 L 555 235 Q 560 239 562 247 L 562 323 L 565 324 L 595 324 L 597 322 L 596 321 L 596 239 L 594 231 L 587 219 Q 579 209 566 204 L 557 202 L 544 202 Z M 669 202 L 651 207 L 638 215 Q 621 228 616 253 L 616 276 L 617 281 L 620 291 L 628 304 L 643 317 L 662 325 L 673 327 L 684 327 L 685 326 L 696 325 L 714 317 L 724 309 Q 732 301 737 289 L 741 272 L 740 250 L 737 240 L 729 226 Q 720 214 706 207 L 688 202 L 669 202 Z M 825 202 Q 806 205 797 216 L 796 204 L 763 204 L 762 205 L 762 323 L 765 324 L 792 324 L 793 323 L 795 324 L 796 323 L 796 258 L 796 256 L 797 248 L 801 240 L 807 234 L 814 231 L 828 231 L 835 234 L 842 242 L 845 255 L 845 324 L 877 324 L 878 323 L 878 240 L 876 231 L 869 218 L 857 207 L 847 203 L 825 202 Z M 959 202 L 948 204 L 937 208 L 921 219 Q 911 227 906 240 L 902 253 L 902 261 L 902 263 Q 903 267 901 269 L 904 286 L 914 305 Q 931 327 971 328 L 973 328 Q 1005 324 1023 305 Q 1025 306 1024 304 L 1003 287 L 985 299 L 973 302 Q 952 303 943 293 L 934 281 L 935 279 L 1025 279 L 1026 275 L 1026 254 L 1024 245 L 1014 227 Q 1004 213 988 206 L 979 203 L 959 202 Z M 1035 204 L 1033 206 L 1080 323 Q 1072 346 1061 367 L 1062 370 L 1097 370 L 1100 365 L 1101 360 L 1120 316 L 1125 301 L 1133 284 L 1164 206 L 1163 204 L 1129 204 L 1100 277 L 1071 207 L 1069 204 L 1035 204 Z "></path><path fill="rgb(0,0,0)" stroke="rgb(0,0,0)" stroke-width="1" opacity="0" d="M 239.5 216 L 250.5 216 L 260.5 218 L 271.5 224 L 282 234.5 L 290 250.5 L 291 268.5 Q 288.8 269.8 290 274.5 L 285 286.5 L 276.5 297 L 267.5 304 Q 262.3 303.8 260.5 307 Q 259 304.5 257.5 308 L 239.5 309 L 233 307.5 L 233.5 306 L 230.5 307 L 222.5 303 L 209 292 L 201 277.5 L 199 265.5 L 199 263.5 L 200 260.5 L 199 258.5 L 201 247.5 L 209 233 L 222.5 222 L 231.5 218 L 233.5 219 L 233.5 217 Q 238.3 218.3 239.5 216 Z "></path><path fill="rgb(0,0,0)" stroke="rgb(0,0,0)" stroke-width="1" opacity="0" d="M 675.5 232 Q 693.4 232.6 702 242.5 L 709 256.5 L 709 269.5 L 706 280.5 L 698.5 291 Q 689.7 297.7 674.5 298 L 660.5 293 L 653 285.5 Q 646.2 275.8 647 258.5 Q 649.2 244.2 659.5 238 L 666.5 234 L 675.5 232 Z "></path><path fill="rgb(0,0,0)" stroke="rgb(0,0,0)" stroke-width="1" opacity="0" d="M 961.5 232 L 974.5 234 Q 983.9 237.6 989 245.5 L 992 250.5 L 936 251 Q 936.8 242.9 943.5 239 L 952.5 234 L 961.5 232 Z "></path><path fill="rgb(159,60,255)" stroke="rgb(159,60,255)" stroke-width="1" opacity="0.9647058823529412" d="M 225.5 134 L 264.5 134 Q 266.3 136.7 272.5 135 L 275.5 137 L 277.5 137 L 289.5 140 L 309.5 150 Q 328.7 161.3 343 177.5 L 352 189.5 L 353 193 Q 355.7 191.9 355 194.5 L 363 208.5 L 365 217 Q 368.3 215.7 367 220.5 L 369 229 Q 373 227.6 371 234.5 L 373 237.5 Q 371.5 243 374 244.5 L 375 265.5 L 374 266.5 L 373 286.5 Q 369.8 289 371 295 Q 367.7 293.7 369 298.5 L 367 306.5 L 357 326.5 L 357.5 328 L 356 327.5 L 350 339 Q 347.3 337.9 348 340.5 L 340.5 350 Q 338.3 349.3 339 351.5 L 326.5 363 L 322 365 Q 323.1 367.7 320.5 367 L 309.5 375 L 289.5 385 Q 288 382.5 286.5 386 Q 279.7 385.7 276.5 389 L 274.5 389 L 264.5 391 L 225.5 391 L 224.5 390 L 213.5 389 L 211.5 387 L 201.5 385 L 188.5 378 L 187 378.5 Q 187.8 376.3 185.5 377 L 174 371 Q 175.3 368 171.5 369 L 149 348.5 L 147.5 346 Q 145.3 346.8 146 344.5 L 139.5 335 L 138 335.5 Q 140.5 334 137 332.5 L 135 327 Q 132.3 328.1 133 325.5 L 123 305.5 L 119.5 288 L 119 359 L 75.5 359 L 73.5 360 L 70 357.5 L 68 346.5 L 66 344.5 L 64 333.5 L 61 328.5 L 61 324.5 L 59 317.5 L 57 315.5 L 55 304.5 L 51 298.5 L 51 294.5 L 47 285.5 L 45 274.5 L 43 272.5 L 41 260.5 L 38 255.5 L 38 251.5 L 36 244.5 L 34 242.5 L 33 234.5 L 30 229.5 L 28 218.5 L 26 216.5 L 20 192.5 L 17 187.5 L 14 170 L 119 170 L 119 236.5 L 120 236.5 L 123 219.5 L 125 217.5 L 127 209.5 L 139 190.5 L 138.5 189 L 140 189.5 L 146 179 L 149 177.5 L 163.5 162 L 171.5 156 L 174 156 Q 172.9 153.3 175.5 154 L 187 148 L 187.5 146 Q 189 148.5 190.5 145 L 213.5 136 L 224.5 135 L 225.5 134 Z M 240 216 Q 238 218 234 217 L 234 219 L 232 218 L 223 222 L 209 233 L 201 248 L 199 259 L 200 261 L 199 264 L 199 266 L 201 278 L 209 292 L 223 303 L 231 307 L 234 306 L 233 308 L 240 309 L 258 308 Q 259 304 261 307 Q 262 304 268 304 L 277 297 L 285 287 L 290 275 Q 289 270 291 269 L 290 251 L 282 235 L 272 224 L 261 218 L 251 216 L 240 216 Z "></path></svg>