<svg width="1183" height="525" xmlns="http://www.w3.org/2000/svg"><path fill="#202020" stroke="#202020" opacity=".969" d="M543.5 202h13l9 2q13.5 4.5 21.5 14.5l7 12 2 8v82l1 1-2.5 2.5h-30l-2.5-1v-76.5q-2.2-7.3-7.5-11.5l-7-4q-4.7 1.2-6-1-1.5 2.5-7 1l-10.5 6.5-4 7-2 10V325h-32.5l-.5-1.5-1-1v-74q-1.4-7.6-6.5-11.5-6.4-6.6-20-6-9.1 1.9-13.5 8.5l-4 9v8l-1 1V325h-32.5l-1.5-1.5v-117l1.5-.5h32l1.5 1.5-1 1v7.5l10.5-8 9-4 4-1h19q18.3 3.8 27.5 16.5l1.5 2.5 3.5-1v-1.5l9.5-9.5 11-6 9-2zm125 0h19l18 5q14.3 6.8 23.5 18.5l8 14 3 10 1 22-4 17q-4.8 12.2-13.5 20.5l-10 8-18 8-11 1-1 1h-11l-11-2-19-8-14.5-13.5-8-13-3-10-1-5v-23q4.9-24.6 21.5-37.5l13-8 18-5zm7.5 30l-9 2-7 4q-11 6-13 21-1 17 6 27l8 7 14 5q15 0 24-7l7-10 3-11v-13l-7-14q-9-10-26-11zm148.5-30l22 1 10 4 12.5 10.5 7 13 2 9v83l-1.5 1.5H845v-69.5l-3-13-7.5-7.5-7-3h-14l-7 3-5.5 5.5-4 8-1 8v67l-1.5 1.5-2-1-1 1h-27l-2.5-1V204.5l.5-.5H796l.5 12q9.9-11.1 28-14zm134 0l20 1 9 3q16.5 7 26.5 20.5l10 18 2 9v21l-1 4.5h-90.5l-.5 1.5 8.5 12.5q9.8 9.7 30 9l12-3 18-12 21.5 16.5q.8 2.3-1.5 1.5-17.9 18.6-50 23h-2q-39.2-.8-56.5-23.5l-10-19-3-17q2.2-1.2 1-6v-10l4-13q5.1-12.4 14.5-20.5l16-11 11-4 11-2zm3.5 30l-9 2-9 5q-7 4-8 12h56l-3-5q-5-8-14-12l-13-2zm72.5-28h34l2.5 2.5 28.5 70.5 29.5-73h33.5l1.5 1.5-31 78-8 17-5 15-19 44-1 5-3.5 5.5h-35l-.5-3.5q11.2-20.3 19-44l-47-117 1.5-1.5z"/><path fill="#9F3CFF" stroke="#9F3CFF" opacity=".965" d="M225.5 134h39q1.8 2.7 8 1l3 2h2l12 3 20 10q19.2 11.3 33.5 27.5l9 12 1 3.5q2.7-1.1 2 1.5l8 14 2 8.5q3.3-1.3 2 3.5l2 8.5q4-1.4 2 5.5l2 3q-1.5 5.5 1 7l1 21-1 1-1 20q-3.2 2.5-2 8.5-3.3-1.3-2 3.5l-2 8-10 20 .5 1.5-1.5-.5-6 11.5q-2.7-1.1-2 1.5l-7.5 9.5q-2.2-.7-1.5 1.5L326.5 363l-4.5 2q1.1 2.7-1.5 2l-11 8-20 10q-1.5-2.5-3 1-6.8-.3-10 3h-2l-10 2h-39l-1-1-11-1-2-2-10-2-13-7-1.5.5q.8-2.2-1.5-1.5l-11.5-6q1.3-3-2.5-2L149 348.5l-1.5-2.5q-2.2.8-1.5-1.5l-6.5-9.5-1.5.5q2.5-1.5-1-3l-2-5.5q-2.7 1.1-2-1.5l-10-20-3.5-17.5-.5 71H75.5l-2 1-3.5-2.5-2-11-2-2-2-11-3-5v-4l-2-7-2-2-2-11-4-6v-4l-4-9-2-11-2-2-2-12-3-5v-4l-2-7-2-2-1-8-3-5-2-11-2-2-6-24-3-5-3-17.5h105v66.5h1l3-17 2-2 2-8 12-19-.5-1.5 1.5.5 6-10.5 3-1.5 14.5-15.5 8-6h2.5q-1.1-2.7 1.5-2l11.5-6 .5-2q1.5 2.5 3-1l23-9 11-1 1-1zm14.5 82q-2 2-6 1v2l-2-1-9 4-14 11-8 15-2 11 1 2-1 3v2l2 12 8 14 14 11 8 4 3-1-1 2 7 1 18-1q1-4 3-1 1-3 7-3l9-7 8-10 5-12q-1-5 1-6l-1-18-8-16-10-11-11-6-10-2h-11z"/></svg>